
<svg xmlns="http://www.w3.org/2000/svg" xmlns:xlink="http://www.w3.org/1999/xlink" width="96" zoomAndPan="magnify" viewBox="0 0 72 72" height="96" preserveAspectRatio="xMidYMid meet" version="1.0"><defs><g/><clipPath id="457b52c0be"><path d="M 1 7 L 7 7 L 7 25.640625 L 1 25.640625 Z M 1 7 " clip-rule="nonzero"/></clipPath><clipPath id="642ca49338"><rect x="0" width="63" y="0" height="26"/></clipPath><clipPath id="0da8ee2d43"><rect x="0" width="72" y="0" height="24"/></clipPath></defs><rect x="-7.2" width="86.4" fill="#ffffff" y="-7.2" height="86.4" fill-opacity="1"/><rect x="-7.2" width="86.4" fill="#737373" y="-7.2" height="86.4" fill-opacity="1"/><g transform="matrix(1, 0, 0, 1, 4, 13)"><g clip-path="url(#642ca49338)"><g clip-path="url(#457b52c0be)"><g fill="#ffffff" fill-opacity="1"><g transform="translate(1.188826, 20.233771)"><g><path d="M 4.0625 -11 C 3.78125 -11 3.539062 -11.097656 3.34375 -11.296875 C 3.144531 -11.492188 3.046875 -11.726562 3.046875 -12 C 3.046875 -12.28125 3.144531 -12.519531 3.34375 -12.71875 C 3.539062 -12.914062 3.78125 -13.015625 4.0625 -13.015625 C 4.34375 -13.015625 4.582031 -12.914062 4.78125 -12.71875 C 4.988281 -12.519531 5.09375 -12.28125 5.09375 -12 C 5.09375 -11.726562 4.988281 -11.492188 4.78125 -11.296875 C 4.582031 -11.097656 4.34375 -11 4.0625 -11 Z M 3.984375 2.015625 C 3.992188 1.335938 3.898438 -0.394531 3.703125 -3.1875 L 3.40625 -7.984375 C 3.40625 -8.273438 3.484375 -8.53125 3.640625 -8.75 C 3.804688 -8.976562 4.019531 -9.09375 4.28125 -9.09375 C 4.476562 -9.09375 4.675781 -9.019531 4.875 -8.875 C 5.070312 -8.726562 5.175781 -8.582031 5.1875 -8.4375 L 5.46875 -3.421875 L 5.703125 1.9375 C 5.703125 2.738281 5.460938 3.46875 4.984375 4.125 C 4.460938 4.832031 3.828125 5.1875 3.078125 5.1875 C 1.828125 5.1875 0.785156 4.226562 -0.046875 2.3125 C -0.117188 2.15625 -0.15625 2.015625 -0.15625 1.890625 C -0.15625 1.660156 -0.0664062 1.460938 0.109375 1.296875 C 0.296875 1.128906 0.503906 1.046875 0.734375 1.046875 C 1.078125 1.046875 1.4375 1.421875 1.8125 2.171875 C 1.90625 2.367188 2.066406 2.65625 2.296875 3.03125 C 2.523438 3.320312 2.785156 3.46875 3.078125 3.46875 C 3.335938 3.46875 3.554688 3.273438 3.734375 2.890625 C 3.867188 2.597656 3.953125 2.304688 3.984375 2.015625 Z M 3.984375 2.015625 "/></g></g></g></g><g fill="#ffffff" fill-opacity="1"><g transform="translate(8.370785, 20.233771)"><g><path d="M 2.875 -11.015625 C 2.59375 -11.015625 2.347656 -11.113281 2.140625 -11.3125 C 1.941406 -11.507812 1.84375 -11.742188 1.84375 -12.015625 C 1.84375 -12.296875 1.941406 -12.535156 2.140625 -12.734375 C 2.347656 -12.929688 2.59375 -13.03125 2.875 -13.03125 C 3.144531 -13.03125 3.378906 -12.929688 3.578125 -12.734375 C 3.785156 -12.535156 3.890625 -12.296875 3.890625 -12.015625 C 3.890625 -11.742188 3.785156 -11.507812 3.578125 -11.3125 C 3.378906 -11.113281 3.144531 -11.015625 2.875 -11.015625 Z M 3.265625 -3.953125 C 3.265625 -3.597656 3.273438 -3.070312 3.296875 -2.375 C 3.316406 -1.6875 3.328125 -1.171875 3.328125 -0.828125 C 3.328125 -0.566406 3.25 -0.351562 3.09375 -0.1875 C 2.9375 -0.03125 2.726562 0.046875 2.46875 0.046875 C 2.21875 0.046875 2.015625 -0.03125 1.859375 -0.1875 C 1.703125 -0.351562 1.625 -0.566406 1.625 -0.828125 C 1.625 -1.171875 1.613281 -1.6875 1.59375 -2.375 C 1.570312 -3.070312 1.5625 -3.597656 1.5625 -3.953125 C 1.5625 -4.492188 1.585938 -5.171875 1.640625 -5.984375 C 1.703125 -6.796875 1.734375 -7.476562 1.734375 -8.03125 C 1.734375 -8.289062 1.8125 -8.5 1.96875 -8.65625 C 2.125 -8.820312 2.328125 -8.90625 2.578125 -8.90625 C 2.828125 -8.90625 3.03125 -8.820312 3.1875 -8.65625 C 3.351562 -8.5 3.4375 -8.289062 3.4375 -8.03125 C 3.4375 -7.476562 3.40625 -6.796875 3.34375 -5.984375 C 3.289062 -5.171875 3.265625 -4.492188 3.265625 -3.953125 Z M 3.265625 -3.953125 "/></g></g></g><g fill="#ffffff" fill-opacity="1"><g transform="translate(13.361638, 20.233771)"><g><path d="M 5.265625 0.359375 C 4.378906 0.359375 3.578125 0.1875 2.859375 -0.15625 C 2.671875 0.125 2.441406 0.265625 2.171875 0.265625 C 1.953125 0.265625 1.765625 0.1875 1.609375 0.03125 C 1.460938 -0.125 1.390625 -0.316406 1.390625 -0.546875 C 1.390625 -0.703125 1.394531 -0.925781 1.40625 -1.21875 C 1.414062 -1.507812 1.421875 -1.734375 1.421875 -1.890625 C 1.421875 -2.503906 1.40625 -3.421875 1.375 -4.640625 C 1.34375 -5.867188 1.328125 -6.789062 1.328125 -7.40625 C 1.328125 -7.832031 1.328125 -8.632812 1.328125 -9.8125 C 1.335938 -10.988281 1.34375 -11.796875 1.34375 -12.234375 C 1.34375 -12.578125 1.414062 -12.890625 1.5625 -13.171875 C 1.757812 -13.523438 2.023438 -13.703125 2.359375 -13.703125 C 2.796875 -13.703125 3.015625 -13.445312 3.015625 -12.9375 C 3.015625 -12.851562 3 -12.734375 2.96875 -12.578125 C 2.9375 -12.421875 2.921875 -12.304688 2.921875 -12.234375 L 2.890625 -10.328125 L 2.875 -8.109375 C 3.382812 -8.453125 3.863281 -8.707031 4.3125 -8.875 C 4.769531 -9.039062 5.195312 -9.125 5.59375 -9.125 C 6.84375 -9.125 7.859375 -8.648438 8.640625 -7.703125 C 9.367188 -6.796875 9.734375 -5.691406 9.734375 -4.390625 C 9.734375 -3.066406 9.304688 -1.941406 8.453125 -1.015625 C 7.597656 -0.0976562 6.535156 0.359375 5.265625 0.359375 Z M 5.59375 -7.484375 C 5.125 -7.484375 4.640625 -7.351562 4.140625 -7.09375 C 3.898438 -6.957031 3.484375 -6.671875 2.890625 -6.234375 L 2.875 -4.71875 L 2.875 -3.359375 L 2.890625 -1.9375 C 3.171875 -1.8125 3.5625 -1.648438 4.0625 -1.453125 C 4.414062 -1.335938 4.816406 -1.28125 5.265625 -1.28125 C 6.109375 -1.28125 6.800781 -1.578125 7.34375 -2.171875 C 7.882812 -2.765625 8.15625 -3.503906 8.15625 -4.390625 C 8.15625 -5.242188 7.9375 -5.960938 7.5 -6.546875 C 7.03125 -7.171875 6.394531 -7.484375 5.59375 -7.484375 Z M 5.59375 -7.484375 "/></g></g></g><g fill="#ffffff" fill-opacity="1"><g transform="translate(23.925899, 20.233771)"><g><path d="M 5.265625 0.359375 C 4.378906 0.359375 3.578125 0.1875 2.859375 -0.15625 C 2.671875 0.125 2.441406 0.265625 2.171875 0.265625 C 1.953125 0.265625 1.765625 0.1875 1.609375 0.03125 C 1.460938 -0.125 1.390625 -0.316406 1.390625 -0.546875 C 1.390625 -0.703125 1.394531 -0.925781 1.40625 -1.21875 C 1.414062 -1.507812 1.421875 -1.734375 1.421875 -1.890625 C 1.421875 -2.503906 1.40625 -3.421875 1.375 -4.640625 C 1.34375 -5.867188 1.328125 -6.789062 1.328125 -7.40625 C 1.328125 -7.832031 1.328125 -8.632812 1.328125 -9.8125 C 1.335938 -10.988281 1.34375 -11.796875 1.34375 -12.234375 C 1.34375 -12.578125 1.414062 -12.890625 1.5625 -13.171875 C 1.757812 -13.523438 2.023438 -13.703125 2.359375 -13.703125 C 2.796875 -13.703125 3.015625 -13.445312 3.015625 -12.9375 C 3.015625 -12.851562 3 -12.734375 2.96875 -12.578125 C 2.9375 -12.421875 2.921875 -12.304688 2.921875 -12.234375 L 2.890625 -10.328125 L 2.875 -8.109375 C 3.382812 -8.453125 3.863281 -8.707031 4.3125 -8.875 C 4.769531 -9.039062 5.195312 -9.125 5.59375 -9.125 C 6.84375 -9.125 7.859375 -8.648438 8.640625 -7.703125 C 9.367188 -6.796875 9.734375 -5.691406 9.734375 -4.390625 C 9.734375 -3.066406 9.304688 -1.941406 8.453125 -1.015625 C 7.597656 -0.0976562 6.535156 0.359375 5.265625 0.359375 Z M 5.59375 -7.484375 C 5.125 -7.484375 4.640625 -7.351562 4.140625 -7.09375 C 3.898438 -6.957031 3.484375 -6.671875 2.890625 -6.234375 L 2.875 -4.71875 L 2.875 -3.359375 L 2.890625 -1.9375 C 3.171875 -1.8125 3.5625 -1.648438 4.0625 -1.453125 C 4.414062 -1.335938 4.816406 -1.28125 5.265625 -1.28125 C 6.109375 -1.28125 6.800781 -1.578125 7.34375 -2.171875 C 7.882812 -2.765625 8.15625 -3.503906 8.15625 -4.390625 C 8.15625 -5.242188 7.9375 -5.960938 7.5 -6.546875 C 7.03125 -7.171875 6.394531 -7.484375 5.59375 -7.484375 Z M 5.59375 -7.484375 "/></g></g></g><g fill="#ffffff" fill-opacity="1"><g transform="translate(34.490162, 20.233771)"><g><path d="M 4.46875 0.515625 C 3.5 0.515625 2.660156 0.15625 1.953125 -0.5625 C 1.171875 -1.363281 0.757812 -2.441406 0.71875 -3.796875 C 0.6875 -5.097656 1.019531 -6.25 1.71875 -7.25 C 2.53125 -8.425781 3.660156 -9.015625 5.109375 -9.015625 C 6.265625 -9.015625 7.140625 -8.484375 7.734375 -7.421875 C 8.210938 -6.566406 8.441406 -5.535156 8.421875 -4.328125 C 8.410156 -3.046875 8.078125 -1.945312 7.421875 -1.03125 C 6.679688 0 5.695312 0.515625 4.46875 0.515625 Z M 5 -7.25 C 4.144531 -7.257812 3.476562 -6.851562 3 -6.03125 C 2.625 -5.375 2.4375 -4.628906 2.4375 -3.796875 C 2.4375 -2.953125 2.664062 -2.296875 3.125 -1.828125 C 3.507812 -1.441406 3.957031 -1.25 4.46875 -1.25 C 5.070312 -1.25 5.59375 -1.46875 6.03125 -1.90625 C 6.519531 -2.394531 6.78125 -3.050781 6.8125 -3.875 C 6.894531 -6.125 6.289062 -7.25 5 -7.25 Z M 5 -7.25 "/></g></g></g><g fill="#ffffff" fill-opacity="1"><g transform="translate(43.854533, 20.233771)"><g><path d="M 7.078125 -6.703125 C 6.753906 -6.703125 6.53125 -6.804688 6.40625 -7.015625 C 6.320312 -7.171875 6.25 -7.484375 6.1875 -7.953125 C 5.75 -7.847656 5.078125 -7.644531 4.171875 -7.34375 C 3.242188 -6.976562 2.773438 -6.519531 2.765625 -5.96875 C 2.941406 -5.90625 3.113281 -5.863281 3.28125 -5.84375 C 4.613281 -5.601562 5.601562 -5.273438 6.25 -4.859375 C 7.195312 -4.242188 7.671875 -3.359375 7.671875 -2.203125 C 7.671875 -1.265625 7.257812 -0.550781 6.4375 -0.0625 C 5.757812 0.320312 4.90625 0.515625 3.875 0.515625 C 3.113281 0.515625 2.390625 0.390625 1.703125 0.140625 C 0.804688 -0.179688 0.359375 -0.632812 0.359375 -1.21875 C 0.359375 -1.445312 0.445312 -1.648438 0.625 -1.828125 C 0.8125 -2.003906 1.019531 -2.09375 1.25 -2.09375 C 1.425781 -2.09375 1.660156 -1.953125 1.953125 -1.671875 C 2.085938 -1.535156 2.398438 -1.425781 2.890625 -1.34375 C 3.273438 -1.269531 3.601562 -1.234375 3.875 -1.234375 C 4.351562 -1.234375 4.78125 -1.289062 5.15625 -1.40625 C 5.695312 -1.570312 5.96875 -1.835938 5.96875 -2.203125 C 5.96875 -2.992188 5.414062 -3.53125 4.3125 -3.8125 L 3.40625 -4.015625 C 2.632812 -4.179688 2.085938 -4.375 1.765625 -4.59375 C 1.296875 -4.925781 1.0625 -5.421875 1.0625 -6.078125 C 1.0625 -7.285156 1.632812 -8.144531 2.78125 -8.65625 C 3.125 -8.8125 3.675781 -9 4.4375 -9.21875 C 5.207031 -9.4375 5.757812 -9.625 6.09375 -9.78125 C 6.320312 -9.882812 6.578125 -9.9375 6.859375 -9.9375 C 7.109375 -9.9375 7.3125 -9.851562 7.46875 -9.6875 C 7.632812 -9.53125 7.71875 -9.316406 7.71875 -9.046875 C 7.71875 -8.878906 7.753906 -8.632812 7.828125 -8.3125 C 7.898438 -7.988281 7.9375 -7.742188 7.9375 -7.578125 C 7.9375 -7.316406 7.851562 -7.101562 7.6875 -6.9375 C 7.53125 -6.78125 7.328125 -6.703125 7.078125 -6.703125 Z M 7.078125 -6.703125 "/></g></g></g><g fill="#ffffff" fill-opacity="1"><g transform="translate(52.523312, 20.233771)"><g><path d="M 8.484375 0.546875 C 8.078125 0.546875 7.8125 0.320312 7.6875 -0.125 C 7.550781 -0.59375 7.425781 -1.265625 7.3125 -2.140625 C 7.207031 -2.984375 7.15625 -3.675781 7.15625 -4.21875 C 7.15625 -4.363281 7.160156 -4.585938 7.171875 -4.890625 C 7.191406 -5.203125 7.203125 -5.4375 7.203125 -5.59375 C 7.203125 -6.6875 6.929688 -7.234375 6.390625 -7.234375 C 5.648438 -7.234375 4.988281 -6.898438 4.40625 -6.234375 C 4.113281 -5.890625 3.707031 -5.234375 3.1875 -4.265625 C 3.1875 -2.054688 3.09375 -0.75 2.90625 -0.34375 C 2.75 0.0078125 2.5 0.1875 2.15625 0.1875 C 1.914062 0.1875 1.707031 0.109375 1.53125 -0.046875 C 1.351562 -0.210938 1.265625 -0.410156 1.265625 -0.640625 C 1.265625 -0.722656 1.289062 -0.851562 1.34375 -1.03125 C 1.382812 -1.175781 1.414062 -1.597656 1.4375 -2.296875 L 1.46875 -3.578125 L 1.484375 -9.96875 C 1.523438 -10.6875 1.546875 -11.171875 1.546875 -11.421875 C 1.546875 -11.722656 1.519531 -12.003906 1.46875 -12.265625 C 1.414062 -12.523438 1.390625 -12.800781 1.390625 -13.09375 C 1.390625 -13.332031 1.472656 -13.53125 1.640625 -13.6875 C 1.804688 -13.851562 2.007812 -13.9375 2.25 -13.9375 C 2.726562 -13.9375 3.007812 -13.679688 3.09375 -13.171875 C 3.1875 -12.609375 3.234375 -12.097656 3.234375 -11.640625 C 3.234375 -11.035156 3.210938 -10.398438 3.171875 -9.734375 C 3.128906 -9.109375 3.113281 -8.476562 3.125 -7.84375 L 3.125 -7.078125 C 3.601562 -7.710938 4.113281 -8.1875 4.65625 -8.5 C 5.195312 -8.8125 5.773438 -8.96875 6.390625 -8.96875 C 7.347656 -8.96875 8.003906 -8.65625 8.359375 -8.03125 C 8.617188 -7.59375 8.765625 -6.851562 8.796875 -5.8125 L 8.875 -4.15625 L 9.046875 -2.34375 C 9.128906 -1.664062 9.226562 -1.066406 9.34375 -0.546875 C 9.363281 -0.453125 9.375 -0.367188 9.375 -0.296875 C 9.375 -0.0546875 9.285156 0.140625 9.109375 0.296875 C 8.941406 0.460938 8.734375 0.546875 8.484375 0.546875 Z M 8.484375 0.546875 "/></g></g></g></g></g><g transform="matrix(1, 0, 0, 1, 0, 32)"><g clip-path="url(#0da8ee2d43)"><g fill="#ffffff" fill-opacity="1"><g transform="translate(0, 18.451984)"><g><path d="M 6.28125 -6.625 C 6.175781 -6.625 6.046875 -6.628906 5.890625 -6.640625 C 5.742188 -6.648438 5.617188 -6.65625 5.515625 -6.65625 C 5.390625 -6.65625 5.035156 -6.613281 4.453125 -6.53125 L 4.609375 -1.9375 L 4.609375 -1.59375 L 4.625 -1.203125 C 4.644531 -0.0664062 4.367188 0.5 3.796875 0.5 C 3.585938 0.5 3.40625 0.429688 3.25 0.296875 C 3.101562 0.160156 3.03125 -0.00390625 3.03125 -0.203125 C 3.03125 -0.398438 3.035156 -0.695312 3.046875 -1.09375 C 3.066406 -1.488281 3.078125 -1.785156 3.078125 -1.984375 L 2.921875 -6.515625 C 2.546875 -6.535156 1.972656 -6.582031 1.203125 -6.65625 C 0.734375 -6.71875 0.5 -6.972656 0.5 -7.421875 C 0.5 -7.648438 0.566406 -7.835938 0.703125 -7.984375 C 0.847656 -8.140625 1.03125 -8.21875 1.25 -8.21875 L 2.890625 -8.078125 C 2.890625 -8.347656 2.875 -8.703125 2.84375 -9.140625 C 2.820312 -9.585938 2.8125 -9.910156 2.8125 -10.109375 C 2.8125 -10.328125 2.882812 -10.503906 3.03125 -10.640625 C 3.1875 -10.785156 3.375 -10.859375 3.59375 -10.859375 C 4.0625 -10.859375 4.332031 -10.476562 4.40625 -9.71875 C 4.425781 -9.53125 4.4375 -9.300781 4.4375 -9.03125 L 4.421875 -8.578125 L 4.40625 -8.09375 C 5.050781 -8.175781 5.421875 -8.21875 5.515625 -8.21875 C 6.054688 -8.21875 6.40625 -8.191406 6.5625 -8.140625 C 6.882812 -8.035156 7.046875 -7.789062 7.046875 -7.40625 C 7.046875 -7.175781 6.972656 -6.988281 6.828125 -6.84375 C 6.679688 -6.695312 6.5 -6.625 6.28125 -6.625 Z M 6.28125 -6.625 "/></g></g></g><g fill="#ffffff" fill-opacity="1"><g transform="translate(7.500686, 18.451984)"><g><path d="M 4.71875 0.359375 C 3.539062 0.359375 2.585938 0.0664062 1.859375 -0.515625 C 1.066406 -1.171875 0.671875 -2.078125 0.671875 -3.234375 C 0.671875 -4.585938 1 -5.71875 1.65625 -6.625 C 2.363281 -7.625 3.3125 -8.125 4.5 -8.125 C 5.363281 -8.125 6.066406 -7.976562 6.609375 -7.6875 C 7.273438 -7.332031 7.609375 -6.785156 7.609375 -6.046875 C 7.609375 -5.523438 7.316406 -5.050781 6.734375 -4.625 C 6.472656 -4.4375 5.921875 -4.144531 5.078125 -3.75 L 2.109375 -2.34375 C 2.398438 -1.914062 2.757812 -1.59375 3.1875 -1.375 C 3.625 -1.15625 4.132812 -1.046875 4.71875 -1.046875 C 5.070312 -1.046875 5.488281 -1.113281 5.96875 -1.25 C 6.582031 -1.425781 6.976562 -1.648438 7.15625 -1.921875 C 7.332031 -2.203125 7.519531 -2.34375 7.71875 -2.34375 C 7.894531 -2.34375 8.054688 -2.269531 8.203125 -2.125 C 8.347656 -1.988281 8.421875 -1.832031 8.421875 -1.65625 C 8.421875 -1.082031 7.957031 -0.585938 7.03125 -0.171875 C 6.238281 0.179688 5.46875 0.359375 4.71875 0.359375 Z M 4.5 -6.71875 C 3.863281 -6.71875 3.335938 -6.472656 2.921875 -5.984375 C 2.503906 -5.492188 2.191406 -4.757812 1.984375 -3.78125 L 4.375 -4.90625 C 5.3125 -5.363281 5.976562 -5.765625 6.375 -6.109375 C 5.925781 -6.515625 5.300781 -6.71875 4.5 -6.71875 Z M 4.5 -6.71875 "/></g></g></g><g fill="#ffffff" fill-opacity="1"><g transform="translate(16.221689, 18.451984)"><g><path d="M 3.0625 -6.109375 L 2.9375 -2.25 C 2.9375 -1.832031 2.914062 -1.226562 2.875 -0.4375 C 2.820312 0.0703125 2.566406 0.328125 2.109375 0.328125 C 1.609375 0.328125 1.359375 0.0664062 1.359375 -0.453125 C 1.359375 -1.085938 1.382812 -2.03125 1.4375 -3.28125 C 1.5 -4.539062 1.53125 -5.484375 1.53125 -6.109375 C 1.53125 -6.929688 1.539062 -7.867188 1.5625 -8.921875 C 1.582031 -9.972656 1.59375 -10.910156 1.59375 -11.734375 C 1.59375 -12.253906 1.847656 -12.515625 2.359375 -12.515625 C 2.878906 -12.515625 3.140625 -12.253906 3.140625 -11.734375 C 3.140625 -10.910156 3.125 -9.972656 3.09375 -8.921875 C 3.070312 -7.867188 3.0625 -6.929688 3.0625 -6.109375 Z M 3.0625 -6.109375 "/></g></g></g><g fill="#ffffff" fill-opacity="1"><g transform="translate(20.58219, 18.451984)"><g><path d="M 4.71875 0.359375 C 3.539062 0.359375 2.585938 0.0664062 1.859375 -0.515625 C 1.066406 -1.171875 0.671875 -2.078125 0.671875 -3.234375 C 0.671875 -4.585938 1 -5.71875 1.65625 -6.625 C 2.363281 -7.625 3.3125 -8.125 4.5 -8.125 C 5.363281 -8.125 6.066406 -7.976562 6.609375 -7.6875 C 7.273438 -7.332031 7.609375 -6.785156 7.609375 -6.046875 C 7.609375 -5.523438 7.316406 -5.050781 6.734375 -4.625 C 6.472656 -4.4375 5.921875 -4.144531 5.078125 -3.75 L 2.109375 -2.34375 C 2.398438 -1.914062 2.757812 -1.59375 3.1875 -1.375 C 3.625 -1.15625 4.132812 -1.046875 4.71875 -1.046875 C 5.070312 -1.046875 5.488281 -1.113281 5.96875 -1.25 C 6.582031 -1.425781 6.976562 -1.648438 7.15625 -1.921875 C 7.332031 -2.203125 7.519531 -2.34375 7.71875 -2.34375 C 7.894531 -2.34375 8.054688 -2.269531 8.203125 -2.125 C 8.347656 -1.988281 8.421875 -1.832031 8.421875 -1.65625 C 8.421875 -1.082031 7.957031 -0.585938 7.03125 -0.171875 C 6.238281 0.179688 5.46875 0.359375 4.71875 0.359375 Z M 4.5 -6.71875 C 3.863281 -6.71875 3.335938 -6.472656 2.921875 -5.984375 C 2.503906 -5.492188 2.191406 -4.757812 1.984375 -3.78125 L 4.375 -4.90625 C 5.3125 -5.363281 5.976562 -5.765625 6.375 -6.109375 C 5.925781 -6.515625 5.300781 -6.71875 4.5 -6.71875 Z M 4.5 -6.71875 "/></g></g></g><g fill="#ffffff" fill-opacity="1"><g transform="translate(29.303195, 18.451984)"><g><path d="M 4.671875 -0.40625 C 4.648438 0.0703125 4.410156 0.3125 3.953125 0.3125 C 3.578125 0.3125 3.304688 0.0859375 3.140625 -0.359375 L 1.9375 -3.515625 L 0.5625 -7.078125 C 0.507812 -7.210938 0.484375 -7.332031 0.484375 -7.4375 C 0.484375 -7.65625 0.5625 -7.835938 0.71875 -7.984375 C 0.882812 -8.128906 1.070312 -8.203125 1.28125 -8.203125 C 1.59375 -8.203125 1.816406 -8.046875 1.953125 -7.734375 L 3.921875 -2.296875 C 4.316406 -3.128906 4.804688 -4.332031 5.390625 -5.90625 C 5.535156 -6.320312 5.757812 -6.910156 6.0625 -7.671875 C 6.21875 -7.992188 6.441406 -8.15625 6.734375 -8.15625 C 6.953125 -8.15625 7.140625 -8.082031 7.296875 -7.9375 C 7.460938 -7.789062 7.546875 -7.613281 7.546875 -7.40625 C 7.546875 -7.207031 7.117188 -6.097656 6.265625 -4.078125 Z M 4.671875 -0.40625 "/></g></g></g><g fill="#ffffff" fill-opacity="1"><g transform="translate(37.044835, 18.451984)"><g><path d="M 2.5625 -9.84375 C 2.3125 -9.84375 2.09375 -9.929688 1.90625 -10.109375 C 1.726562 -10.285156 1.640625 -10.5 1.640625 -10.75 C 1.640625 -11 1.726562 -11.207031 1.90625 -11.375 C 2.09375 -11.550781 2.3125 -11.640625 2.5625 -11.640625 C 2.8125 -11.640625 3.023438 -11.550781 3.203125 -11.375 C 3.378906 -11.207031 3.46875 -11 3.46875 -10.75 C 3.46875 -10.5 3.378906 -10.285156 3.203125 -10.109375 C 3.023438 -9.929688 2.8125 -9.84375 2.5625 -9.84375 Z M 2.921875 -3.53125 C 2.921875 -3.21875 2.925781 -2.75 2.9375 -2.125 C 2.957031 -1.507812 2.96875 -1.046875 2.96875 -0.734375 C 2.96875 -0.503906 2.894531 -0.316406 2.75 -0.171875 C 2.613281 -0.0351562 2.429688 0.03125 2.203125 0.03125 C 1.984375 0.03125 1.800781 -0.0351562 1.65625 -0.171875 C 1.519531 -0.316406 1.453125 -0.503906 1.453125 -0.734375 C 1.453125 -1.046875 1.441406 -1.507812 1.421875 -2.125 C 1.398438 -2.75 1.390625 -3.21875 1.390625 -3.53125 C 1.390625 -4.019531 1.414062 -4.625 1.46875 -5.34375 C 1.519531 -6.070312 1.546875 -6.679688 1.546875 -7.171875 C 1.546875 -7.410156 1.613281 -7.601562 1.75 -7.75 C 1.894531 -7.894531 2.082031 -7.96875 2.3125 -7.96875 C 2.53125 -7.96875 2.710938 -7.894531 2.859375 -7.75 C 3.003906 -7.601562 3.078125 -7.410156 3.078125 -7.171875 C 3.078125 -6.679688 3.050781 -6.070312 3 -5.34375 C 2.945312 -4.625 2.921875 -4.019531 2.921875 -3.53125 Z M 2.921875 -3.53125 "/></g></g></g><g fill="#ffffff" fill-opacity="1"><g transform="translate(41.506383, 18.451984)"><g><path d="M 6.328125 -5.984375 C 6.046875 -5.984375 5.847656 -6.082031 5.734375 -6.28125 C 5.648438 -6.40625 5.582031 -6.679688 5.53125 -7.109375 C 5.132812 -7.015625 4.535156 -6.832031 3.734375 -6.5625 C 2.898438 -6.238281 2.476562 -5.832031 2.46875 -5.34375 C 2.625 -5.28125 2.78125 -5.238281 2.9375 -5.21875 C 4.125 -5 5.007812 -4.707031 5.59375 -4.34375 C 6.4375 -3.789062 6.859375 -3 6.859375 -1.96875 C 6.859375 -1.125 6.492188 -0.488281 5.765625 -0.0625 C 5.148438 0.289062 4.378906 0.46875 3.453125 0.46875 C 2.773438 0.46875 2.128906 0.351562 1.515625 0.125 C 0.710938 -0.164062 0.3125 -0.570312 0.3125 -1.09375 C 0.3125 -1.300781 0.394531 -1.476562 0.5625 -1.625 C 0.726562 -1.78125 0.914062 -1.859375 1.125 -1.859375 C 1.28125 -1.859375 1.484375 -1.738281 1.734375 -1.5 C 1.859375 -1.375 2.140625 -1.273438 2.578125 -1.203125 C 2.929688 -1.140625 3.222656 -1.109375 3.453125 -1.109375 C 3.890625 -1.109375 4.273438 -1.160156 4.609375 -1.265625 C 5.085938 -1.410156 5.328125 -1.644531 5.328125 -1.96875 C 5.328125 -2.675781 4.835938 -3.15625 3.859375 -3.40625 L 3.046875 -3.578125 C 2.359375 -3.734375 1.867188 -3.910156 1.578125 -4.109375 C 1.160156 -4.398438 0.953125 -4.835938 0.953125 -5.421875 C 0.953125 -6.503906 1.460938 -7.28125 2.484375 -7.75 C 2.796875 -7.882812 3.289062 -8.046875 3.96875 -8.234375 C 4.65625 -8.429688 5.144531 -8.597656 5.4375 -8.734375 C 5.65625 -8.828125 5.890625 -8.875 6.140625 -8.875 C 6.359375 -8.875 6.535156 -8.800781 6.671875 -8.65625 C 6.816406 -8.507812 6.890625 -8.320312 6.890625 -8.09375 C 6.890625 -7.945312 6.921875 -7.726562 6.984375 -7.4375 C 7.054688 -7.144531 7.09375 -6.921875 7.09375 -6.765625 C 7.09375 -6.535156 7.019531 -6.347656 6.875 -6.203125 C 6.726562 -6.054688 6.546875 -5.984375 6.328125 -5.984375 Z M 6.328125 -5.984375 "/></g></g></g><g fill="#ffffff" fill-opacity="1"><g transform="translate(49.255794, 18.451984)"><g><path d="M 2.5625 -9.84375 C 2.3125 -9.84375 2.09375 -9.929688 1.90625 -10.109375 C 1.726562 -10.285156 1.640625 -10.5 1.640625 -10.75 C 1.640625 -11 1.726562 -11.207031 1.90625 -11.375 C 2.09375 -11.550781 2.3125 -11.640625 2.5625 -11.640625 C 2.8125 -11.640625 3.023438 -11.550781 3.203125 -11.375 C 3.378906 -11.207031 3.46875 -11 3.46875 -10.75 C 3.46875 -10.5 3.378906 -10.285156 3.203125 -10.109375 C 3.023438 -9.929688 2.8125 -9.84375 2.5625 -9.84375 Z M 2.921875 -3.53125 C 2.921875 -3.21875 2.925781 -2.75 2.9375 -2.125 C 2.957031 -1.507812 2.96875 -1.046875 2.96875 -0.734375 C 2.96875 -0.503906 2.894531 -0.316406 2.75 -0.171875 C 2.613281 -0.0351562 2.429688 0.03125 2.203125 0.03125 C 1.984375 0.03125 1.800781 -0.0351562 1.65625 -0.171875 C 1.519531 -0.316406 1.453125 -0.503906 1.453125 -0.734375 C 1.453125 -1.046875 1.441406 -1.507812 1.421875 -2.125 C 1.398438 -2.75 1.390625 -3.21875 1.390625 -3.53125 C 1.390625 -4.019531 1.414062 -4.625 1.46875 -5.34375 C 1.519531 -6.070312 1.546875 -6.679688 1.546875 -7.171875 C 1.546875 -7.410156 1.613281 -7.601562 1.75 -7.75 C 1.894531 -7.894531 2.082031 -7.96875 2.3125 -7.96875 C 2.53125 -7.96875 2.710938 -7.894531 2.859375 -7.75 C 3.003906 -7.601562 3.078125 -7.410156 3.078125 -7.171875 C 3.078125 -6.679688 3.050781 -6.070312 3 -5.34375 C 2.945312 -4.625 2.921875 -4.019531 2.921875 -3.53125 Z M 2.921875 -3.53125 "/></g></g></g><g fill="#ffffff" fill-opacity="1"><g transform="translate(53.71734, 18.451984)"><g><path d="M 4 0.453125 C 3.125 0.453125 2.375 0.132812 1.75 -0.5 C 1.050781 -1.21875 0.679688 -2.179688 0.640625 -3.390625 C 0.609375 -4.554688 0.90625 -5.585938 1.53125 -6.484375 C 2.257812 -7.535156 3.269531 -8.0625 4.5625 -8.0625 C 5.601562 -8.0625 6.390625 -7.585938 6.921875 -6.640625 C 7.347656 -5.867188 7.550781 -4.945312 7.53125 -3.875 C 7.519531 -2.71875 7.21875 -1.734375 6.625 -0.921875 C 5.96875 -0.00390625 5.09375 0.453125 4 0.453125 Z M 4.46875 -6.484375 C 3.695312 -6.484375 3.101562 -6.117188 2.6875 -5.390625 C 2.34375 -4.804688 2.171875 -4.140625 2.171875 -3.390625 C 2.171875 -2.640625 2.378906 -2.050781 2.796875 -1.625 C 3.128906 -1.28125 3.53125 -1.109375 4 -1.109375 C 4.53125 -1.109375 4.992188 -1.304688 5.390625 -1.703125 C 5.828125 -2.140625 6.0625 -2.726562 6.09375 -3.46875 C 6.164062 -5.46875 5.625 -6.472656 4.46875 -6.484375 Z M 4.46875 -6.484375 "/></g></g></g><g fill="#ffffff" fill-opacity="1"><g transform="translate(62.088574, 18.451984)"><g><path d="M 7.046875 0.546875 C 6.597656 0.546875 6.347656 0.304688 6.296875 -0.171875 L 6.078125 -1.875 C 6.003906 -2.488281 5.96875 -3.054688 5.96875 -3.578125 C 5.96875 -3.722656 5.972656 -3.96875 5.984375 -4.3125 C 6.003906 -4.664062 6.015625 -4.914062 6.015625 -5.0625 C 6.015625 -6.175781 5.804688 -6.734375 5.390625 -6.734375 C 4.816406 -6.734375 4.265625 -6.390625 3.734375 -5.703125 C 3.253906 -5.078125 2.878906 -4.285156 2.609375 -3.328125 C 2.597656 -3.128906 2.578125 -2.875 2.546875 -2.5625 C 2.515625 -2.300781 2.5 -2.050781 2.5 -1.8125 C 2.5 -1.65625 2.515625 -1.421875 2.546875 -1.109375 C 2.578125 -0.796875 2.59375 -0.5625 2.59375 -0.40625 C 2.59375 -0.175781 2.519531 0.0078125 2.375 0.15625 C 2.226562 0.300781 2.046875 0.375 1.828125 0.375 C 1.597656 0.375 1.410156 0.300781 1.265625 0.15625 C 1.128906 0.0078125 1.0625 -0.175781 1.0625 -0.40625 C 1.0625 -0.5625 1.046875 -0.796875 1.015625 -1.109375 C 0.984375 -1.421875 0.96875 -1.65625 0.96875 -1.8125 C 0.96875 -2.34375 1.003906 -3.082031 1.078125 -4.03125 C 1.148438 -4.976562 1.1875 -5.71875 1.1875 -6.25 C 1.1875 -6.414062 1.175781 -6.660156 1.15625 -6.984375 C 1.144531 -7.316406 1.140625 -7.566406 1.140625 -7.734375 C 1.140625 -7.953125 1.210938 -8.128906 1.359375 -8.265625 C 1.503906 -8.410156 1.6875 -8.484375 1.90625 -8.484375 C 2.382812 -8.484375 2.644531 -8.148438 2.6875 -7.484375 L 2.71875 -6.5625 C 3.582031 -7.726562 4.472656 -8.3125 5.390625 -8.3125 C 6.222656 -8.3125 6.800781 -7.945312 7.125 -7.21875 C 7.351562 -6.726562 7.476562 -6.003906 7.5 -5.046875 L 7.5 -4.265625 L 7.484375 -3.546875 C 7.484375 -3.117188 7.539062 -2.5625 7.65625 -1.875 C 7.769531 -1.195312 7.828125 -0.644531 7.828125 -0.21875 C 7.828125 0.0078125 7.75 0.191406 7.59375 0.328125 C 7.445312 0.472656 7.265625 0.546875 7.046875 0.546875 Z M 7.046875 0.546875 "/></g></g></g><g fill="#ffffff" fill-opacity="1"><g transform="translate(70.421554, 18.451984)"><g/></g></g></g></g></svg>
